<svg width="183" height="55" viewBox="0 0 183 55" fill="none" xmlns="http://www.w3.org/2000/svg">
<path d="M110.41 25.3645C112.896 27.7342 114.125 30.8353 114.125 34.6385C114.125 38.4124 112.867 41.5135 110.38 43.9416C107.894 46.3698 104.471 47.5693 100.082 47.5693H92.8271V21.7661H100.112C104.5 21.7661 107.923 22.9656 110.41 25.3645ZM94.8458 23.6092V45.7262H100.082C103.798 45.7262 106.723 44.673 108.83 42.5666C110.936 40.4603 111.989 37.8273 111.989 34.6092C111.989 31.3911 110.936 28.7289 108.83 26.681C106.723 24.6331 103.798 23.5799 100.082 23.5799L94.8458 23.6092Z" fill="#808184"/>
<path d="M119.098 20.2156C119.42 20.5667 119.596 20.947 119.596 21.4151C119.596 21.8832 119.42 22.2927 119.098 22.6145C118.777 22.9656 118.367 23.1119 117.87 23.1119C117.372 23.1119 116.963 22.9363 116.641 22.6145C116.319 22.2635 116.144 21.8832 116.144 21.4151C116.144 20.947 116.319 20.5374 116.641 20.2156C116.963 19.8645 117.372 19.7183 117.87 19.7183C118.367 19.7183 118.777 19.8645 119.098 20.2156ZM118.835 47.5693H116.875V28.6996H118.835V47.5693Z" fill="#808184"/>
<path d="M140.923 28.6996V45.9017C140.923 48.7102 140.075 50.9336 138.407 52.5719C136.74 54.2102 134.575 55.0001 131.883 55.0001C130.099 55.0001 128.46 54.649 126.968 53.9762C125.447 53.3033 124.218 52.4256 123.224 51.3139L124.423 49.9974C126.53 52.1038 129.016 53.157 131.854 53.157C133.99 53.157 135.716 52.5427 137.003 51.2847C138.319 50.0267 138.963 48.2714 138.963 45.9602V43.5028C138.232 44.7315 137.179 45.6969 135.804 46.4283C134.429 47.1597 132.937 47.5107 131.298 47.5107C128.636 47.5107 126.413 46.5746 124.628 44.7315C122.843 42.8884 121.937 40.6065 121.937 37.8857C121.937 35.1943 122.843 32.9416 124.628 31.0693C126.413 29.1969 128.636 28.2607 131.269 28.2607C132.907 28.2607 134.429 28.6411 135.833 29.4017C137.237 30.1623 138.29 31.1863 138.992 32.4443V28.6996H140.923ZM136.798 43.6783C138.232 42.3618 138.963 40.431 138.963 37.8857C138.963 35.3698 138.232 33.4389 136.769 32.1224C135.306 30.806 133.58 30.1623 131.562 30.1623C129.367 30.1623 127.554 30.8937 126.12 32.3857C124.687 33.8778 123.984 35.7208 123.984 37.9443C123.984 40.1677 124.687 42.0107 126.12 43.4735C127.554 44.9363 129.367 45.6677 131.562 45.6677C133.609 45.6677 135.365 44.9948 136.798 43.6783Z" fill="#808184"/>
<path d="M147.476 20.2156C147.798 20.5667 147.974 20.947 147.974 21.4151C147.974 21.8832 147.798 22.2927 147.476 22.6145C147.154 22.9656 146.745 23.1119 146.248 23.1119C145.75 23.1119 145.341 22.9363 145.019 22.6145C144.697 22.2635 144.521 21.8832 144.521 21.4151C144.521 20.947 144.697 20.5374 145.019 20.2156C145.341 19.8645 145.75 19.7183 146.248 19.7183C146.745 19.7183 147.154 19.8645 147.476 20.2156ZM147.213 47.5693H145.253V28.6996H147.213V47.5693Z" fill="#808184"/>
<path d="M161.021 45.843V47.5691C160.026 47.8324 159.061 47.9494 158.096 47.9494C156.311 47.9494 154.907 47.4813 153.883 46.5744C152.83 45.6675 152.332 44.234 152.332 42.2738V30.4547H149.056V28.6701H152.332V23.3164H154.322V28.6701H160.407V30.4547H154.322V42.1861C154.322 44.8191 155.697 46.1356 158.417 46.1356C159.149 46.1648 160.026 46.077 161.021 45.843Z" fill="#808184"/>
<path d="M174.304 30.2209C175.591 31.5081 176.234 33.322 176.234 35.7209V47.5693H174.362V44.6438C172.841 46.8672 170.588 47.9789 167.604 47.9789C165.79 47.9789 164.24 47.54 162.982 46.6331C161.724 45.7262 161.109 44.4682 161.109 42.8592C161.109 41.3087 161.724 40.1092 162.894 39.173C164.093 38.2661 165.673 37.798 167.663 37.798H174.216V35.6331C174.216 33.8486 173.748 32.4736 172.812 31.5374C171.875 30.6012 170.617 30.1331 169.008 30.1331C166.814 30.1331 164.913 31.1863 163.274 33.2927L161.899 32.2102C163.713 29.6065 166.141 28.29 169.125 28.29C171.29 28.3193 173.016 28.9337 174.304 30.2209ZM172.343 44.6145C173.601 43.5321 174.245 42.1571 174.245 40.548V39.4948H167.867C166.317 39.4948 165.147 39.7874 164.357 40.3432C163.538 40.8991 163.157 41.7182 163.157 42.7422C163.157 43.8831 163.625 44.7608 164.532 45.3751C165.439 45.9895 166.551 46.2821 167.809 46.2821C169.564 46.2528 171.085 45.697 172.343 44.6145Z" fill="#808184"/>
<path d="M182.202 47.5692H180.242V18.2554H182.202V47.5692Z" fill="#808184"/>
<path d="M22.0878 21.883H26.9149V47.5399H22.0878V44.5558C19.6888 46.5744 16.6463 48.0957 13.4574 48.0957C9.85904 48.0957 6.49468 46.75 3.92021 44.234C1.40426 41.6596 0 38.2952 0 34.6968C0 31.0984 1.40426 27.734 3.92021 25.1596C6.49468 22.6436 9.85904 21.2979 13.4574 21.2979C16.6463 21.2979 19.6888 22.8191 22.0878 24.8377V21.883ZM22.0878 34.6968C22.0878 29.9282 18.2261 26.008 13.4574 26.008C8.68883 26.008 4.82713 29.9282 4.82713 34.6968C4.82713 39.4654 8.68883 43.3856 13.4574 43.3856C18.2261 43.3856 22.0878 39.4654 22.0878 34.6968Z" fill="#29AAE1"/>
<path d="M53.9171 21.8828L43.5022 47.5397H38.2948L27.8799 21.8828H33.0873L40.9278 41.1621L48.7097 21.8828H53.9171Z" fill="#29AAE1"/>
<path d="M55.9365 16.9389C55.9365 15.2128 57.3408 13.8086 59.1254 13.8086C60.8514 13.8086 62.2557 15.2128 62.2557 16.9389C62.2557 18.665 60.8514 20.1277 59.1254 20.1277C57.3408 20.1277 55.9365 18.6942 55.9365 16.9389ZM56.6972 21.8831H61.5243V47.54H56.6972V21.8831Z" fill="#29AAE1"/>
<path d="M90.34 21.8828L79.9251 47.5397H74.7176L64.3027 21.8828H69.5102L77.3506 41.1621L85.1325 21.8828H90.34Z" fill="#29AAE1"/>
<path d="M56.7262 10.2979C52.1038 3.8617 44.6145 0 36.6863 0C35.6623 0 34.6091 0.0585097 33.5852 0.204786C24.5746 1.34574 16.9682 7.28457 13.6916 15.7101C13.5746 15.9149 13.5161 16.0612 13.4575 16.2074L13.1943 17.1729C13.0772 17.6117 13.1357 18.0798 13.3698 18.4601C13.6038 18.8404 13.9549 19.133 14.3937 19.25C15.1544 19.4548 16.0028 19.0745 16.3538 18.4016C16.4123 18.2846 16.4416 18.1968 16.4708 18.0798L16.5879 17.641C19.2794 9.97606 25.9496 4.59308 33.9948 3.56915C34.8724 3.45213 35.7794 3.39361 36.6863 3.39361C43.532 3.39361 49.9974 6.72872 53.9762 12.2872C54.298 12.7261 54.7953 12.9894 55.3512 12.9894C55.7022 12.9894 56.0533 12.8723 56.3458 12.6676C57.0772 12.1117 57.2528 11.0585 56.7262 10.2979Z" fill="#808184"/>
</svg>
